# xmcd
#
# Track frame offsets: 
#        150
#        16567
#        30327
#        39855
#        51740
#        61777
#        75840
#        148405
#        171767
#        187067
#        201167
#        217330
#        239567
#        257342
#        273017
#        287005
#
# Disc length: 4286 seconds
#
# Revision: 10
# Processed by: cddbd v1.5.2PL0 Copyright (c) Steve Scherf et al.
# Submitted via: ExactAudioCopyFreeDBPlugin 1.0
#
DISCID=df10bc10
DTITLE=The Byrds - 1970 - Untitled[Unissued] CD 1
DYEAR=1970
DGENRE=
TTITLE0=Lover Of The Bayou [Live]
TTITLE1=Positively 4th Street [Live]
TTITLE2=Nashville West [Live]
TTITLE3=So You Want To Be A Rock N' Roll Star [Live]
TTITLE4=Mr. Tambourine Man [Live]
TTITLE5=Mr. Spaceman [Live]
TTITLE6=Eight Miles High [Live]
TTITLE7=Chestnut Mare
TTITLE8=Truck Stop Girl
TTITLE9=All The Things
TTITLE10=Yesterday's Train
TTITLE11=Hungry Planet
TTITLE12=Just A Season
TTITLE13=Take A Whiff On Me
TTITLE14=You All Look Alike
TTITLE15=Well Come Back Home
EXTD=
EXTT0=
EXTT1=
EXTT2=
EXTT3=
EXTT4=
EXTT5=
EXTT6=
EXTT7=
EXTT8=
EXTT9=
EXTT10=
EXTT11=
EXTT12=
EXTT13=
EXTT14=
EXTT15=
PLAYORDER=
